Coordinates
version=1
nRows=21
nColumns=12
inDegrees=yes

Units are S.I. units (second, meters, Newtons, ...)
Angles are in degrees

endheader
time	SC_y	SC_z	SC_x	AC_y	AC_z	AC_x	GH_y	GH_z	GH_yy	EL_x	PS_y
       0.0               -56.8         -2.027           23.0          48.25          -9.37         -2.164          177.8          43.91          119.5           83.0          38.81
   0.02072              -56.79         -2.023           23.0          48.25         -9.371         -2.162          177.8          43.91          119.5          82.99          38.82
   0.04145              -56.79         -2.019           23.0          48.26         -9.371         -2.161          177.8          43.91          119.5          82.98          38.83
   0.06217              -56.79         -2.014          22.99          48.26         -9.372         -2.159          177.8          43.91          119.5          82.97          38.83
    0.0829              -56.78          -2.01          22.99          48.26         -9.372         -2.157          177.8           43.9          119.5          82.96          38.84
    0.1036              -56.78         -2.005          22.98          48.26         -9.373         -2.155          177.7           43.9          119.5          82.95          38.84
    0.1243              -56.77         -1.999          22.98          48.27         -9.374         -2.152          177.7           43.9          119.5          82.94          38.85
    0.1451              -56.76         -1.994          22.98          48.27         -9.374          -2.15          177.7          43.89          119.5          82.93          38.86
    0.1658              -56.76         -1.988          22.97          48.27         -9.375         -2.147          177.7          43.89          119.6          82.91          38.87
    0.1865              -56.75         -1.981          22.97          48.28         -9.376         -2.144          177.7          43.89          119.6           82.9          38.87
    0.2072              -56.74         -1.974          22.96          48.28         -9.377         -2.141          177.7          43.88          119.6          82.88          38.88
     0.228              -56.74         -1.967          22.95          48.28         -9.378         -2.138          177.6          43.88          119.6          82.87          38.89
    0.2487              -56.73         -1.958          22.95          48.29         -9.379         -2.135          177.6          43.87          119.6          82.85           38.9
    0.2694              -56.72          -1.95          22.94          48.29          -9.38         -2.131          177.6          43.87          119.6          82.83          38.91
    0.2901              -56.71          -1.94          22.93           48.3         -9.381         -2.127          177.6          43.86          119.6          82.81          38.93
    0.3109               -56.7          -1.93          22.92           48.3         -9.383         -2.122          177.5          43.86          119.6          82.79          38.94
    0.3316              -56.69         -1.919          22.91          48.31         -9.384         -2.117          177.5          43.85          119.6          82.76          38.95
    0.3523              -56.68         -1.906           22.9          48.32         -9.386         -2.112          177.5          43.84          119.6          82.73          38.97
     0.373              -56.66         -1.893          22.89          48.32         -9.387         -2.106          177.5          43.84          119.7           82.7          38.99
    0.3938              -56.65         -1.878          22.88          48.33         -9.389           -2.1          177.4          43.83          119.7          82.67          39.01
    0.4145              -56.63         -1.862          22.87          48.34         -9.391         -2.093          177.4          43.82          119.7          82.64          39.03
